Coordinates
version=1
nRows=29
nColumns=22
inDegrees=yes

Units are S.I. units (second, meters, Newtons, ...)
If the header above contains a line with 'inDegrees', this indicates whether rotational values are in degrees (yes) or radians (no).

endheader
time	pelvis_tilt	pelvis_list	pelvis_rotation	pelvis_tx	pelvis_ty	pelvis_tz	hip_flexion_r	hip_adduction_r	hip_rotation_r	knee_angle_r	ankle_angle_r	subtalar_angle_r	hip_flexion_l	hip_adduction_l	hip_rotation_l	knee_angle_l	ankle_angle_l	subtalar_angle_l	lumbar_extension	lumbar_bending	lumbar_rotation
      1.98000000	     -0.67470355	      1.00765233	     74.56592855	      0.36361381	      0.91147180	     -0.11695437	     24.62653036	     -3.11372362	      5.67694259	    -19.68287251	     -3.94170867	     11.03375930	     -9.37522882	      1.17808317	     16.28731234	    -26.57898549	     13.77027072	     -6.88433046	     -5.56968456	     -3.39174311	     -8.38243626
      1.99000000	     -0.32464942	      0.99033787	     74.70802526	      0.36886551	      0.91285117	     -0.12377181	     24.24378849	     -2.61439140	      5.33836550	    -20.18880770	     -3.55225639	     11.12609067	     -9.37019707	      0.66571191	     15.98471925	    -27.49556875	     12.53299160	     -6.68096055	     -5.49016192	     -2.89270466	     -8.24192353
      2.00000000	      0.01380048	      0.97540645	     74.91932734	      0.37396969	      0.91432959	     -0.13049753	     23.77011906	     -2.15921366	      4.92699305	    -20.53110345	     -3.14274566	     11.16762907	     -9.25734233	      0.15141943	     15.60868038	    -28.53380146	     11.18585567	     -6.45867011	     -5.42612250	     -2.41409837	     -8.17227148
      2.01000000	      0.31945850	      0.97720144	     75.19489322	      0.37891498	      0.91588239	     -0.13708495	     23.21487693	     -1.76745708	      4.44840393	    -20.73108727	     -2.70486485	     11.11968867	     -9.03987017	     -0.34390532	     15.15314676	    -29.69124147	      9.71733116	     -6.15157782	     -5.39227609	     -1.98803537	     -8.15759610
      2.02000000	      0.59921041	      0.95321904	     75.54634612	      0.38366577	      0.91742112	     -0.14350996	     22.62512132	     -1.41832274	      3.92288780	    -20.79327324	     -2.27899301	     11.07654573	     -8.66366540	     -0.83878870	     14.64837920	    -30.98370283	      8.15953814	     -6.08494700	     -5.34213283	     -1.59015303	     -8.21286394
      2.03000000	      0.88380585	      0.94643196	     76.00113093	      0.38817295	      0.91899273	     -0.14975756	     21.92751711	     -1.10276817	      3.28471006	    -20.67535921	     -1.92884741	     10.79246416	     -8.16205883	     -1.37862474	     14.06895412	    -32.42715857	      6.57988706	     -5.81074446	     -5.33878889	     -1.20025522	     -8.34877439
      2.04000000	      1.13476399	      0.93344916	     76.49065175	      0.39253958	      0.92051125	     -0.15582230	     21.21457993	     -0.81839450	      2.62357176	    -20.47109420	     -1.57193371	     10.47894906	     -7.55257056	     -1.91270873	     13.45089586	    -33.93883017	      4.88172506	     -5.70198446	     -5.33302711	     -0.86055340	     -8.49576675
      2.05000000	      1.38524988	      0.92195854	     77.03503680	      0.39671967	      0.92196212	     -0.16167522	     20.47943555	     -0.53701544	      1.92458426	    -20.19680728	     -1.24856622	     10.03287567	     -6.83659977	     -2.48429705	     12.81101555	    -35.53747654	      3.12626095	     -5.67789253	     -5.35143845	     -0.53040442	     -8.67079497
      2.06000000	      1.63043824	      0.91800261	     77.60703578	      0.40074343	      0.92332193	     -0.16732539	     19.74055229	     -0.25395471	      1.20621892	    -19.89307862	     -0.89803449	      9.39733986	     -6.04081584	     -3.08137468	     12.16873475	    -37.18919928	      1.32424587	     -5.76920271	     -5.39443165	     -0.21439494	     -8.82588276
      2.07000000	      1.87520020	      0.91844152	     78.22024973	      0.40462256	      0.92461080	     -0.17276947	     18.97964569	      0.03526967	      0.47521086	    -19.51342635	     -0.67197225	      8.84819740	     -5.16843673	     -3.71018679	     11.57307935	    -38.87557744	     -0.53494322	     -5.95401681	     -5.46011299	      0.08567054	     -9.02081987
      2.08000000	      2.11271237	      0.93309943	     78.83066672	      0.40839484	      0.92577499	     -0.17802923	     18.24757991	      0.33454958	     -0.24062134	    -19.17588457	     -0.32694144	      8.06234442	     -4.25038490	     -4.35130850	     11.00097000	    -40.57494215	     -2.42309086	     -6.28682619	     -5.55427655	      0.36765971	     -9.15270295
      2.09000000	      2.34935054	      0.96119035	     79.45880243	      0.41203433	      0.92685742	     -0.18309751	     17.52508123	      0.64286895	     -0.94105683	    -18.83891643	     -0.05465609	      7.38604544	     -3.28347834	     -4.99980856	     10.51612068	    -42.28461189	     -4.37177536	     -6.64541556	     -5.67868642	      0.63937107	     -9.28355779
      2.10000000	      2.57573209	      0.99931033	     80.09036260	      0.41556663	      0.92782617	     -0.18796866	     16.83998424	      0.95275580	     -1.61848433	    -18.54283274	      0.22405447	      6.72180968	     -2.25951724	     -5.64284026	     10.10203046	    -44.01552721	     -6.36317025	     -7.05153705	     -5.82960415	      0.89002325	     -9.38564160
      2.11000000	      2.78815136	      1.04362716	     80.71702664	      0.41899018	      0.92868789	     -0.19265952	     16.20271451	      1.25930675	     -2.26351810	    -18.29993428	      0.51206095	      6.12403395	     -1.18172739	     -6.26237809	      9.76966619	    -45.75603289	     -8.41633005	     -7.46919785	     -5.99786519	      1.12079345	     -9.45060362
      2.12000000	      2.98661568	      1.08911482	     81.33998689	      0.42231252	      0.92943910	     -0.19718137	     15.61739848	      1.56061061	     -2.87478760	    -18.11048222	      0.80593466	      5.59479036	     -0.03796025	     -6.85834713	      9.50487570	    -47.52025439	    -10.50700371	     -7.87456733	     -6.17428931	      1.33245299	     -9.48805586
      2.13000000	      3.17419458	      1.13456788	     81.95306272	      0.42553349	      0.93009256	     -0.20155023	     15.08691080	      1.85833332	     -3.44517756	    -17.98144834	      1.11879195	      5.13664999	      1.15988209	     -7.41278078	      9.33296574	    -49.29494249	    -12.63830669	     -8.25215854	     -6.35519356	      1.53040773	     -9.46784809
      2.14000000	      3.35272016	      1.18579561	     82.55869648	      0.42865152	      0.93066657	     -0.20577426	     14.60009657	      2.14961372	     -3.98463412	    -17.90558675	      1.42556275	      4.75894991	      2.40308522	     -7.92664144	      9.23407776	    -51.07793034	    -14.75190513	     -8.54731577	     -6.54580122	      1.71778874	     -9.41257027
      2.15000000	      3.51445564	      1.23576385	     83.15055471	      0.43166341	      0.93116575	     -0.20986794	     14.15621170	      2.42850151	     -4.47348655	    -17.86853162	      1.74732824	      4.42932133	      3.68175765	     -8.37372754	      9.22000582	    -52.84798598	    -16.79709640	     -8.75311229	     -6.73344825	      1.88753114	     -9.30144322
      2.16000000	      3.65821267	      1.34868180	     83.73313392	      0.43452664	      0.93172999	     -0.21384638	     13.67175387	      2.68055748	     -4.92395233	    -17.84526619	      2.00744837	      4.23132840	      4.89888803	     -8.73046650	      9.29744338	    -54.56086872	    -18.71242933	     -8.73903568	     -6.99433438	      2.03587171	     -9.16185933
      2.17000000	      3.78743669	      1.43148894	     84.30132515	      0.43723952	      0.93216552	     -0.21766932	     13.27404124	      2.91793624	     -5.35763136	    -17.88616387	      2.31930787	      4.00538162	      6.16562175	     -9.01575446	      9.43353947	    -56.24749738	    -20.31813451	     -8.60908240	     -7.21861733	      2.18169133	     -8.96123236
      2.18000000	      3.88634877	      1.49969741	     84.84184487	      0.43976560	      0.93252461	     -0.22135363	     12.93676542	      3.11632109	     -5.78924844	    -17.97005549	      2.65191090	      3.75960122	      7.43094610	     -9.19117952	      9.62971768	    -57.86539417	    -21.50149486	     -8.24070978	     -7.41961944	      2.31366218	     -8.67722372
      2.19000000	      3.95803522	      1.62319220	     85.36167806	      0.44213230	      0.93295445	     -0.22488185	     12.56534837	      3.28133058	     -6.16736418	    -18.06667642	      2.95534361	      3.56896601	      8.59424163	     -9.25655311	      9.87950934	    -59.36692374	    -22.20769349	     -7.63476788	     -7.68798237	      2.41884748	     -8.36246706
      2.20000000	      4.00492169	      1.77849568	     85.83683422	      0.44433363	      0.93341906	     -0.22826788	     12.18062720	      3.41532209	     -6.50840556	    -18.16814183	      3.24802620	      3.39934628	      9.66092222	     -9.22183770	     10.13946299	    -60.74085552	    -22.33132947	     -6.84265765	     -7.99143080	      2.51443817	     -7.98116157
      2.21000000	      4.03908333	      1.96104037	     86.27284540	      0.44645809	      0.93392896	     -0.23150775	     11.77201014	      3.54116641	     -6.81027275	    -18.24968279	      3.50297863	      3.24020013	     10.62872851	     -9.12138757	     10.39095665	    -61.96634838	    -21.86387122	     -5.97757786	     -8.32546250	      2.59491536	     -7.53941380
      2.22000000	      4.07164218	      2.17549322	     86.64539441	      0.44854578	      0.93448163	     -0.23458641	     11.34025027	      3.67247040	     -7.06411284	    -18.32378257	      3.74567779	      3.09023545	     11.49142080	     -8.99538812	     10.57148948	    -63.04114741	    -20.86108713	     -5.14433660	     -8.70200924	      2.67729506	     -7.02426272
      2.23000000	      4.11291429	      2.39050873	     86.97381432	      0.45061761	      0.93505362	     -0.23753914	     10.88735923	      3.82374130	     -7.29527937	    -18.33409649	      3.92927339	      2.94719361	     12.28382713	     -8.86914992	     10.68547410	    -63.95498976	    -19.36582575	     -4.44460745	     -9.07372197	      2.76485419	     -6.44459262
      2.24000000	      4.16440738	      2.59958877	     87.24660684	      0.45271829	      0.93562009	     -0.24033410	     10.43012164	      3.99853375	     -7.49279516	    -18.29654377	      4.07296588	      2.80766751	     13.02209274	     -8.77024345	     10.69632223	    -64.71253640	    -17.52470479	     -3.84843268	     -9.43990752	      2.85480343	     -5.80967876
      2.25000000	      4.22391409	      2.78614346	     87.46892882	      0.45484978	      0.93615758	     -0.24298164	      9.97818779	      4.19500696	     -7.65937506	    -18.19765743	      4.18434858	      2.67891571	     13.73101776	     -8.70970923	     10.59305226	    -65.31618536	    -15.48057194	     -3.34184093	     -9.77706787	      2.94403234	     -5.13373616
      2.26000000	      4.28453172	      2.93787078	     87.64970132	      0.45697350	      0.93663522	     -0.24543267	      9.56229113	      4.40011732	     -7.78512969	    -18.06670700	      4.28318461	      2.58607967	     14.43187429	     -8.67481900	     10.39340608	    -65.77373602	    -13.35637767	     -2.94199620	    -10.08215577	      3.02772846	     -4.42604408
